<svg width="32" height="32" viewBox="0 0 32 32" fill="none" xmlns="http://www.w3.org/2000/svg">
<path d="M21.3113 14.7388L14.3112 10.2388C14.0847 10.0931 13.8231 10.0111 13.5539 10.0014C13.2847 9.99174 13.0179 10.0547 12.7815 10.1837C12.545 10.3128 12.3477 10.5031 12.2102 10.7347C12.0727 10.9663 12.0001 11.2306 12 11.5V20.5C12.0001 20.7694 12.0727 21.0337 12.2102 21.2653C12.3477 21.4969 12.545 21.6872 12.7815 21.8163C13.0179 21.9453 13.2847 22.0083 13.5539 21.9986C13.8231 21.9889 14.0847 21.9069 14.3112 21.7613L21.3113 17.2613C21.5223 17.1254 21.6959 16.9387 21.8161 16.7184C21.9363 16.498 21.9993 16.251 21.9993 16C21.9993 15.749 21.9363 15.502 21.8161 15.2816C21.6959 15.0613 21.5223 14.8746 21.3113 14.7388ZM15 17.75V14.25L17.7262 16L15 17.75ZM29.7763 8.5625C29.6382 8.02462 29.3743 7.52723 29.0064 7.11127C28.6385 6.69532 28.177 6.37271 27.66 6.17C23.3 4.48875 16.4113 4.5 16 4.5C15.5887 4.5 8.7 4.48875 4.34 6.1725C3.823 6.37521 3.36154 6.69782 2.99361 7.11377C2.62569 7.52973 2.36183 8.02712 2.22375 8.565C1.89375 9.84 1.5 12.165 1.5 16C1.5 19.835 1.89375 22.16 2.22375 23.435C2.36183 23.9729 2.62569 24.4703 2.99361 24.8862C3.36154 25.3022 3.823 25.6248 4.34 25.8275C8.52625 27.4438 15.045 27.5 15.9213 27.5H16.0788C16.9538 27.5 23.4737 27.4438 27.66 25.8275C28.177 25.6248 28.6385 25.3022 29.0064 24.8862C29.3743 24.4703 29.6382 23.9729 29.7763 23.435C30.1063 22.16 30.5 19.835 30.5 16C30.5 12.165 30.1063 9.84 29.7763 8.565V8.5625ZM26.875 22.6825C26.857 22.7592 26.8211 22.8305 26.7702 22.8907C26.7194 22.9508 26.6551 22.9982 26.5825 23.0288C22.8475 24.47 16.5338 24.5 16.04 24.5H15.9913C15.925 24.5 9.28625 24.5213 5.42125 23.0288C5.34797 22.9986 5.28289 22.9515 5.23139 22.8913C5.17988 22.8311 5.14342 22.7596 5.125 22.6825C4.89 21.7775 4.5 19.705 4.5 16C4.5 12.295 4.89375 10.2225 5.125 9.3175C5.14304 9.24083 5.17893 9.1695 5.22976 9.10933C5.28059 9.04916 5.34492 9.00185 5.4175 8.97125C9.28625 7.47875 15.9237 7.5 15.99 7.5H16.0088C16.0763 7.5 22.7138 7.47875 26.5788 8.97125C26.652 9.00137 26.7171 9.04847 26.7686 9.10867C26.8201 9.16887 26.8566 9.24044 26.875 9.3175C27.11 10.2225 27.5 12.295 27.5 16C27.5 19.705 27.1063 21.7775 26.875 22.6825Z" fill="white"/>
</svg>
