<svg width="32" height="32" viewBox="0 0 32 32" fill="none" xmlns="http://www.w3.org/2000/svg">
<path d="M29.2913 8.69C29.1735 8.22919 28.9478 7.80298 28.6329 7.44654C28.318 7.09011 27.9228 6.81366 27.48 6.64C23.195 4.985 16.375 5 16 5C15.625 5 8.805 4.985 4.52 6.64C4.0772 6.81366 3.68204 7.09011 3.36712 7.44654C3.05219 7.80298 2.82653 8.22919 2.70875 8.69C2.385 9.9375 2 12.2175 2 16C2 19.7825 2.385 22.0625 2.70875 23.31C2.82636 23.771 3.05194 24.1975 3.36687 24.5542C3.68181 24.9108 4.07706 25.1875 4.52 25.3613C8.625 26.945 15.05 27 15.9175 27H16.0825C16.95 27 23.3787 26.945 27.48 25.3613C27.9229 25.1875 28.3182 24.9108 28.6331 24.5542C28.9481 24.1975 29.1736 23.771 29.2913 23.31C29.615 22.06 30 19.7825 30 16C30 12.2175 29.615 9.9375 29.2913 8.69ZM20.0737 16.815L15.0737 20.315C14.9242 20.4198 14.7488 20.4816 14.5666 20.4938C14.3844 20.5059 14.2023 20.4679 14.0401 20.384C13.878 20.3 13.7419 20.1732 13.6467 20.0174C13.5515 19.8615 13.5007 19.6826 13.5 19.5V12.5C13.5001 12.3171 13.5503 12.1377 13.6452 11.9813C13.7402 11.8249 13.8762 11.6976 14.0385 11.6132C14.2008 11.5287 14.3831 11.4904 14.5656 11.5024C14.7482 11.5144 14.9239 11.5763 15.0737 11.6813L20.0737 15.1813C20.2053 15.2735 20.3126 15.396 20.3868 15.5386C20.4609 15.6811 20.4996 15.8394 20.4996 16C20.4996 16.1606 20.4609 16.3189 20.3868 16.4614C20.3126 16.604 20.2053 16.7265 20.0737 16.8188V16.815Z" fill="white"/>
</svg>
