<svg width="32" height="32" viewBox="0 0 32 32" fill="none" xmlns="http://www.w3.org/2000/svg">
<path d="M21.4399 12.2158C19.4028 12.9603 18.2121 13.7813 15.9999 16.0558C17.8943 22.0272 17.0527 25.1542 13.1199 30.4558C15.2336 30.9646 16.5843 31.0047 19.1999 30.7758C23.6135 22.2222 23.9984 18.1992 21.4399 12.2158Z" fill="#3EB2D1"/>
<path d="M28.1598 7.0958C20.9639 5.83407 17.0578 6.57874 10.5598 13.1758C12.4549 14.7537 13.6915 15.2948 15.9998 16.0558C20.0529 11.9089 23.0565 10.6173 30.7198 11.5758C29.704 9.2671 29.1465 8.39601 28.1598 7.0958Z" fill="#E5E5E5"/>
<path d="M12.4802 31.0959C4.87998 27.8176 2.23818 24.8144 0.960205 17.0159C6.21189 23.6106 9.37992 26.0209 15.6802 26.6159L12.4802 31.0959Z" fill="#3EB2D1"/>
<path d="M7.36019 9.65583C6.40297 8.14806 5.95186 7.20363 5.44019 5.17583C11.8247 0.266358 15.8872 0.428018 23.3602 2.9357C15.912 3.55945 12.3319 4.64346 7.36019 9.65583Z" fill="#3EB2D1"/>
<path d="M15.6802 26.6159C9.56605 25.6876 6.26422 24.1122 0.960269 16.3759C0.955693 13.7727 1.19784 12.4611 1.92027 10.2959C7.78623 19.1234 11.0808 21.4687 16.9603 22.1359C16.6659 23.9874 16.3857 24.9683 15.6802 26.6159Z" fill="#FECA07"/>
<path d="M16.9602 22.1362C10.1084 20.9003 6.82284 18.4404 2.24023 9.97616C2.95409 8.00545 3.59557 7.10529 5.12023 5.81616C7.97647 11.922 10.4538 14.0187 16.0002 16.0562C16.8618 18.3368 17.0464 19.6722 16.9602 22.1362Z" fill="#E5E5E5"/>
<path d="M10.5598 13.4961C9.13866 12.3029 8.35343 11.5531 7.03979 9.65609C13.5321 4.14703 17.1013 2.77559 23.3598 2.93609L27.8398 6.45609C18.9489 6.36735 15.1231 7.85421 10.5598 13.4961Z" fill="#FECA07"/>
<path d="M19.2 30.4559C23.2733 22.8493 24.2479 18.7833 21.44 12.2159L25.92 11.2559C28.5338 17.7767 27.7131 21.587 24 28.5359C22.0541 29.7344 21.0098 30.109 19.2 30.4559Z" fill="#FECA07"/>
<path d="M24.6399 28.5359C27.7641 20.9473 28.4207 17.0433 25.9199 11.2559L30.0799 11.5759C32.4448 18.7631 30.2197 22.3467 24.6399 28.5359Z" fill="#E5E5E5"/>
<path d="M5.49683 5.10425C5.88945 7.91804 8.55928 14.0168 16.0976 15.9014" stroke="#1E2F47" stroke-width="0.896"/>
<path d="M25.9203 11.2559C28.6127 17.8578 27.7723 21.6641 24.3203 28.5359" stroke="#1E2F47" stroke-width="0.896"/>
<path d="M21.44 12.2158C24.2742 19.0993 23.1942 23.1317 19.2 30.4558" stroke="#1E2F47" stroke-width="0.896"/>
<path d="M7.36011 9.65559C13.1332 4.25893 16.6758 2.70659 23.6801 3.25559" stroke="#1E2F47" stroke-width="0.896"/>
<path d="M16 16.0559C17.7984 22.9328 16.7137 26.0133 12.8 30.7759" stroke="#1E2F47" stroke-width="0.896"/>
<path d="M0.639893 16.376C5.72771 23.4149 9.03264 25.5872 15.6799 26.616" stroke="#1E2F47" stroke-width="0.896"/>
<path d="M30.6804 11.9092C28.0291 10.8884 21.4006 10.2668 16.0977 15.9463" stroke="#1E2F47" stroke-width="0.896"/>
<path d="M2.24023 9.65601C5.64768 17.0475 8.45368 20.2297 16.9602 22.136" stroke="#1E2F47" stroke-width="0.896"/>
<path d="M10.5598 13.1761C15.8397 7.3479 19.7208 5.99841 28.1598 6.77614" stroke="#1E2F47" stroke-width="0.896"/>
<circle cx="16" cy="16" r="15.104" stroke="#1E2F47" stroke-width="1.792"/>
</svg>
