<svg width="44" height="44" viewBox="0 0 44 44" fill="none" xmlns="http://www.w3.org/2000/svg">
<path d="M29.1077 17.6001C25.855 19.3005 25.2425 19.7558 22.6769 22.1693C24.7969 31.3674 24.0978 34.8842 19.123 41.2924C23.5778 41.8707 23.9038 41.3242 26.0615 41.1232C31.8132 29.8453 32.3003 26.3252 29.1077 17.6001Z" fill="white"/>
<path d="M37.2309 9.81555C26.1591 9.37215 23.1716 10.3145 15.4001 18.1079C19.0044 20.6082 19.6805 20.3909 22.0001 21.1541C28.6566 15.7178 30.8166 14.1936 40.2771 15.2309C38.8803 12.0564 38.5876 11.6033 37.2309 9.81555Z" fill="white"/>
<path d="M20.6462 37.0615C19.6169 38.7067 18.9831 39.5941 17.7693 41.123C14.2368 39.9698 11.5462 39.0754 9.03231 36.5538C6.25778 34.1941 4.24075 31.2073 2.87695 26.2307C10.158 34.3038 12.056 35.2251 20.6462 37.0615Z" fill="white"/>
<path d="M10.154 12.3538C9.07554 10.2761 9.23178 10.7423 8.29248 7.95382C11.1399 5.5359 13.6687 3.93828 16.9983 3.12452C21.2797 2.08361 24.8533 2.2683 28.9386 3.72309C24.1337 3.7883 21.1947 4.70741 17.9386 6.43086C15.5268 7.92459 13.1568 9.49837 10.154 12.3538Z" fill="white"/>
<path d="M21.1538 35.877C13.3531 34.2047 10.565 33.8512 2.53841 23.6924C2.53212 20.1129 2.56045 18.7157 3.55379 15.7385C8.83072 25.6153 11.7935 27.9199 22.5077 30.9693C22.1029 33.5151 22.1239 33.6116 21.1538 35.877Z" fill="white"/>
<path d="M22.5077 29.6154C11.841 26.453 9.08129 24.1767 4.06152 14.0462C5.06015 12.0989 5.3684 11.5052 7.44614 8.96924C10.6709 17.0709 13.2149 19.2649 21.4923 22.3385C22.3145 25.6308 22.2966 26.3695 22.5077 29.6154Z" fill="white"/>
<path d="M14.3847 17.4307C12.5554 15.6261 12.7839 15.9538 10.8308 13.5384C19.3308 5.83929 22.6814 4.75163 31.6462 5.07688C33.3412 5.94842 34.3064 6.72273 36.0462 8.46145C25.0455 8.34748 21.9572 9.6801 14.3847 17.4307Z" fill="white"/>
<path d="M27.7539 40.6154C32.8884 30.237 33.5981 26.3874 30.2923 17.2615C31.8285 16.5922 32.9058 16.3396 35.2 16.0769C38.278 24.7643 37.9864 28.1057 33.3385 37.9077C31.63 38.9581 31.1005 39.5885 27.7539 40.6154Z" fill="white"/>
<path d="M36.5537 16.0769C38.1271 16.0956 39.0484 16.1962 40.7844 16.5846C41.4452 19.2958 41.6913 21.8008 41.4614 24.3692C40.2796 30.4237 38.5921 32.8498 35.7075 35.8769C37.8488 30.8854 38.6786 27.9211 38.4152 24.3692C38.4367 22.0103 37.8186 19.6806 36.5537 16.0769Z" fill="white"/>
</svg>
