<svg width="297" height="92" viewBox="0 0 297 92" fill="none" xmlns="http://www.w3.org/2000/svg">
<path d="M21.2079 75.0259C19.862 75.0259 18.5881 74.7615 17.3864 74.2327C16.1847 73.704 15.4156 72.9108 15.0791 71.8533L0.802535 26.5C0.706397 26.2116 0.658328 25.9232 0.658328 25.6348C0.658328 24.9137 0.970777 24.2888 1.59568 23.7601C2.22058 23.1833 2.98968 22.7266 3.903 22.3901C4.86438 22.0536 5.7777 21.8854 6.64294 21.8854C7.36398 21.8854 8.01292 22.0296 8.58975 22.318C9.21465 22.6064 9.5992 23.0871 9.74341 23.7601L21.1358 62.8403L27.2646 37.7482C27.505 36.883 28.0578 36.234 28.923 35.8014C29.8363 35.3688 30.8218 35.1525 31.8793 35.1525C32.9368 35.1525 33.8982 35.3688 34.7634 35.8014C35.6767 36.234 36.2295 36.883 36.4218 37.7482L42.5506 62.8403L53.943 23.7601C54.1353 23.0871 54.5199 22.6064 55.0967 22.318C55.6735 22.0296 56.3225 21.8854 57.0435 21.8854C57.9568 21.8854 58.8701 22.0536 59.7834 22.3901C60.6968 22.7266 61.4659 23.1833 62.0908 23.7601C62.7157 24.2888 63.0281 24.9137 63.0281 25.6348C63.0281 25.9232 62.98 26.2116 62.8839 26.5L48.6074 71.8533C48.2228 72.9108 47.4537 73.704 46.3 74.2327C45.1464 74.7615 43.8725 75.0259 42.4785 75.0259C41.1326 75.0259 39.8588 74.7615 38.657 74.2327C37.4553 73.704 36.7343 72.9108 36.4939 71.8533L31.8793 52.3853L27.1925 71.8533C26.9522 72.9108 26.2311 73.704 25.0294 74.2327C23.8277 74.7615 22.5538 75.0259 21.2079 75.0259ZM72.0309 74.5933C71.0215 74.5933 70.0841 74.3529 69.2189 73.8722C68.3537 73.3435 67.921 72.5744 67.921 71.5649V24.9137C67.921 23.9043 68.3537 23.1592 69.2189 22.6785C70.0841 22.1498 71.0215 21.8854 72.0309 21.8854H97.6999C98.7574 21.8854 99.5025 22.318 99.9351 23.1832C100.416 24.0485 100.656 24.9618 100.656 25.9232C100.656 27.0769 100.392 28.0623 99.863 28.8795C99.3823 29.6966 98.6613 30.1052 97.6999 30.1052H77.2945V44.526H88.2543C89.2157 44.526 89.9367 44.9105 90.4174 45.6796C90.9462 46.4007 91.2106 47.2659 91.2106 48.2754C91.2106 49.0926 90.9702 49.9097 90.4895 50.7269C90.0569 51.496 89.3118 51.8806 88.2543 51.8806H77.2945V66.3734H97.6999C98.6613 66.3734 99.3823 66.782 99.863 67.5992C100.392 68.4164 100.656 69.4018 100.656 70.5554C100.656 71.5168 100.416 72.4301 99.9351 73.2954C99.5025 74.1606 98.7574 74.5933 97.6999 74.5933H72.0309ZM110.266 74.5933C109.256 74.5933 108.319 74.3529 107.454 73.8722C106.588 73.3435 106.156 72.5744 106.156 71.5649V24.9137C106.156 23.9043 106.588 23.1592 107.454 22.6785C108.319 22.1498 109.256 21.8854 110.266 21.8854H135.935C136.992 21.8854 137.737 22.318 138.17 23.1832C138.651 24.0485 138.891 24.9618 138.891 25.9232C138.891 27.0769 138.627 28.0623 138.098 28.8795C137.617 29.6966 136.896 30.1052 135.935 30.1052H115.529V44.526H126.489C127.45 44.526 128.171 44.9105 128.652 45.6796C129.181 46.4007 129.445 47.2659 129.445 48.2754C129.445 49.0926 129.205 49.9097 128.724 50.7269C128.292 51.496 127.547 51.8806 126.489 51.8806H115.529V66.3734H135.935C136.896 66.3734 137.617 66.782 138.098 67.5992C138.627 68.4164 138.891 69.4018 138.891 70.5554C138.891 71.5168 138.651 72.4301 138.17 73.2954C137.737 74.1606 136.992 74.5933 135.935 74.5933H110.266ZM149.077 74.5933C147.924 74.5933 146.842 74.3529 145.833 73.8722C144.871 73.3435 144.39 72.5744 144.39 71.5649V24.8416C144.39 23.7841 144.871 23.039 145.833 22.6064C146.842 22.1257 147.924 21.8854 149.077 21.8854C150.279 21.8854 151.361 22.1257 152.322 22.6064C153.283 23.039 153.764 23.7841 153.764 24.8416V44.4539L169.411 23.2554C170.035 22.342 170.877 21.8854 171.934 21.8854C172.751 21.8854 173.568 22.1257 174.386 22.6064C175.251 23.0871 175.972 23.688 176.549 24.409C177.126 25.1301 177.414 25.8992 177.414 26.7163C177.414 26.9567 177.366 27.2451 177.27 27.5816C177.174 27.9181 177.005 28.2305 176.765 28.5189L163.931 44.6702L179.649 68.6086C179.986 69.1374 180.154 69.6902 180.154 70.267C180.154 71.0361 179.866 71.7812 179.289 72.5023C178.76 73.2233 178.063 73.8242 177.198 74.3048C176.332 74.7375 175.443 74.9538 174.53 74.9538C173.857 74.9538 173.232 74.8096 172.655 74.5212C172.126 74.2327 171.646 73.7761 171.213 73.1512L157.658 52.6016L153.764 57.5047V71.5649C153.764 72.5744 153.283 73.3435 152.322 73.8722C151.361 74.3529 150.279 74.5933 149.077 74.5933Z" fill="white"/>
<mask id="path-2-outside-1_2180_1021" maskUnits="userSpaceOnUse" x="184.35" y="20.1943" width="34" height="55" fill="black">
<rect fill="white" x="184.35" y="20.1943" width="34" height="55"/>
<path d="M191.614 72.1943C190.692 72.1943 189.835 71.9747 189.045 71.5355C188.254 71.0523 187.859 70.3495 187.859 69.427V26.7316C187.859 25.7653 188.298 25.0845 189.176 24.6891C190.099 24.2499 191.087 24.0302 192.141 24.0302C193.24 24.0302 194.228 24.2499 195.106 24.6891C195.985 25.0845 196.424 25.7653 196.424 26.7316V64.6831H212.567C213.445 64.6831 214.082 65.0784 214.477 65.8691C214.873 66.6158 215.07 67.4724 215.07 68.4387C215.07 69.3612 214.873 70.2177 214.477 71.0084C214.082 71.799 213.445 72.1943 212.567 72.1943H191.614Z"/>
</mask>
<path d="M189.045 71.5355L187.552 73.9788L187.602 74.0098L187.654 74.0386L189.045 71.5355ZM189.176 24.6891L190.352 27.3004L190.38 27.2877L190.408 27.2744L189.176 24.6891ZM195.106 24.6891L193.826 27.2503L193.878 27.2764L193.931 27.3004L195.106 24.6891ZM196.424 64.6831H193.561V67.5466H196.424V64.6831ZM214.477 65.8691L211.916 67.1497L211.931 67.1795L211.947 67.2089L214.477 65.8691ZM191.614 69.3309C191.168 69.3309 190.792 69.2304 190.435 69.0323L187.654 74.0386C188.879 74.719 190.215 75.0578 191.614 75.0578V69.3309ZM190.538 69.0921C190.513 69.0771 190.523 69.0796 190.551 69.1071C190.579 69.136 190.617 69.1814 190.651 69.2421C190.685 69.3029 190.705 69.3592 190.715 69.4009C190.725 69.4407 190.722 69.4528 190.722 69.427H184.995C184.995 71.3525 185.914 72.9784 187.552 73.9788L190.538 69.0921ZM190.722 69.427V26.7316H184.995V69.427H190.722ZM190.722 26.7316C190.722 26.6916 190.727 26.8436 190.594 27.0486C190.462 27.2542 190.32 27.3148 190.352 27.3004L188.001 22.0779C187.155 22.4588 186.354 23.0574 185.782 23.9439C185.21 24.8298 184.995 25.8053 184.995 26.7316H190.722ZM190.408 27.2744C190.933 27.0242 191.499 26.8937 192.141 26.8937V21.1668C190.675 21.1668 189.265 21.4755 187.945 22.1038L190.408 27.2744ZM192.141 26.8937C192.848 26.8937 193.39 27.0323 193.826 27.2503L196.387 22.128C195.066 21.4675 193.631 21.1668 192.141 21.1668V26.8937ZM193.931 27.3004C193.963 27.3148 193.821 27.2542 193.689 27.0486C193.556 26.8436 193.561 26.6916 193.561 26.7316H199.288C199.288 25.8053 199.072 24.8298 198.501 23.9439C197.929 23.0574 197.128 22.4588 196.281 22.0779L193.931 27.3004ZM193.561 26.7316V64.6831H199.288V26.7316H193.561ZM196.424 67.5466H212.567V61.8196H196.424V67.5466ZM212.567 67.5466C212.572 67.5466 212.531 67.5471 212.457 67.528C212.381 67.5082 212.289 67.4718 212.193 67.4125C211.986 67.284 211.913 67.1423 211.916 67.1497L217.039 64.5885C216.647 63.8052 216.057 63.0705 215.213 62.5467C214.368 62.0222 213.446 61.8196 212.567 61.8196V67.5466ZM211.947 67.2089C212.094 67.4869 212.207 67.8717 212.207 68.4387H217.934C217.934 67.073 217.652 65.7448 217.008 64.5293L211.947 67.2089ZM212.207 68.4387C212.207 68.9365 212.104 69.3522 211.916 69.7278L217.039 72.2889C217.641 71.0832 217.934 69.7858 217.934 68.4387H212.207ZM211.916 69.7278C211.913 69.7351 211.986 69.5934 212.193 69.4649C212.289 69.4057 212.381 69.3693 212.457 69.3495C212.531 69.3304 212.572 69.3309 212.567 69.3309V75.0578C213.446 75.0578 214.368 74.8552 215.213 74.3308C216.057 73.8069 216.647 73.0722 217.039 72.2889L211.916 69.7278ZM212.567 69.3309H191.614V75.0578H212.567V69.3309Z" fill="white" mask="url(#path-2-outside-1_2180_1021)"/>
<path d="M256.59 67.2612L245.668 40.3621V25.4754H247.084C247.46 25.4754 247.82 25.2549 248.086 24.8625C248.351 24.4702 248.501 23.938 248.501 23.3831C248.501 22.8282 248.351 22.296 248.086 21.9036C247.82 21.5112 247.46 21.2908 247.084 21.2908H232.921C232.545 21.2908 232.185 21.5112 231.919 21.9036C231.654 22.296 231.505 22.8282 231.505 23.3831C231.505 23.938 231.654 24.4702 231.919 24.8625C232.185 25.2549 232.545 25.4754 232.921 25.4754H234.337V40.3621L223.416 67.2612C223.158 67.8956 223.019 68.6195 223.012 69.3593C223.006 70.099 223.132 70.828 223.379 71.4721C223.625 72.1162 223.982 72.6523 224.415 73.0258C224.847 73.3993 225.339 73.5968 225.839 73.5982H254.166C254.667 73.5982 255.159 73.4017 255.592 73.0287C256.025 72.6558 256.384 72.1198 256.631 71.4755C256.878 70.8312 257.004 70.1016 256.998 69.3612C256.992 68.6208 256.853 67.8962 256.595 67.2612H256.59ZM240.642 56.0386C237.825 53.9332 235.145 52.8165 232.636 52.6883L236.968 42.0176C237.101 41.6932 237.17 41.3215 237.17 40.9427V25.4754H242.835V40.9427C242.835 41.3215 242.905 41.6932 243.037 42.0176L249.804 58.6906C247.686 59.3026 244.657 59.0411 240.642 56.0386Z" fill="white"/>
<mask id="path-5-outside-2_2180_1021" maskUnits="userSpaceOnUse" x="260.574" y="19.6836" width="37" height="55" fill="black">
<rect fill="white" x="260.574" y="19.6836" width="37" height="55"/>
<path d="M267.284 71.6836C266.142 71.6836 265.219 71.42 264.516 70.8929C263.858 70.3658 263.528 69.7289 263.528 68.9822V26.2868C263.528 25.3644 263.923 24.6835 264.714 24.2443C265.505 23.7611 266.361 23.5195 267.284 23.5195H280.066C282.306 23.5195 284.437 23.8489 286.457 24.5078C288.478 25.1228 290.125 26.2648 291.399 27.934C292.673 29.6032 293.309 31.9971 293.309 35.1158C293.309 37.7952 292.804 40.0354 291.794 41.8364C290.784 43.5934 289.422 44.8452 287.709 45.592C289.071 46.0751 290.257 46.756 291.267 47.6345C292.277 48.4691 293.068 49.5892 293.639 50.9948C294.21 52.3565 294.495 54.1354 294.495 56.3317V57.7153C294.495 61.1415 293.902 63.8869 292.716 65.9513C291.574 67.9719 289.993 69.4434 287.973 70.3658C285.996 71.2443 283.778 71.6836 281.318 71.6836H267.284ZM272.094 64.1724H279.473C281.494 64.1724 283.075 63.6013 284.217 62.4593C285.359 61.3172 285.93 59.4943 285.93 56.9906V55.9364C285.93 53.3448 285.359 51.5438 284.217 50.5336C283.075 49.4794 281.494 48.9523 279.473 48.9523H272.094V64.1724ZM272.094 42.2317H279.473C281.274 42.2317 282.592 41.7046 283.426 40.6504C284.305 39.5962 284.744 38.2345 284.744 36.5653C284.744 35.3793 284.524 34.391 284.085 33.6004C283.646 32.7658 283.031 32.1289 282.24 31.6896C281.45 31.2504 280.505 31.0307 279.407 31.0307H272.094V42.2317Z"/>
</mask>
<path d="M264.516 70.8929L262.728 73.1289L262.763 73.1569L262.798 73.1837L264.516 70.8929ZM264.714 24.2443L266.105 26.7474L266.157 26.7186L266.207 26.6876L264.714 24.2443ZM286.457 24.5078L285.569 27.2302L285.596 27.239L285.623 27.2472L286.457 24.5078ZM291.399 27.934L289.122 29.6712L289.122 29.6712L291.399 27.934ZM291.794 41.8364L294.276 43.2637L294.284 43.2506L294.291 43.2373L291.794 41.8364ZM287.709 45.592L286.565 42.967L279.916 45.8652L286.751 48.2906L287.709 45.592ZM291.267 47.6345L289.388 49.7953L289.415 49.8191L289.443 49.8421L291.267 47.6345ZM293.639 50.9948L290.986 52.0725L290.992 52.0874L290.998 52.1022L293.639 50.9948ZM292.716 65.9513L290.234 64.525L290.229 64.5336L290.224 64.5424L292.716 65.9513ZM287.973 70.3658L289.136 72.9825L289.149 72.9767L289.162 72.9707L287.973 70.3658ZM272.094 64.1724H269.23V67.0358H272.094V64.1724ZM284.217 62.4593L286.242 64.4841L286.242 64.4841L284.217 62.4593ZM284.217 50.5336L282.275 52.6376L282.297 52.6582L282.32 52.6783L284.217 50.5336ZM272.094 48.9523V46.0888H269.23V48.9523H272.094ZM272.094 42.2317H269.23V45.0952H272.094V42.2317ZM283.426 40.6504L281.226 38.8172L281.203 38.8448L281.181 38.873L283.426 40.6504ZM284.085 33.6004L281.551 34.934L281.566 34.9627L281.582 34.991L284.085 33.6004ZM282.24 31.6896L283.631 29.1865L283.631 29.1865L282.24 31.6896ZM272.094 31.0307V28.1673H269.23V31.0307H272.094ZM267.284 68.8201C266.575 68.8201 266.311 68.6595 266.235 68.6022L262.798 73.1837C264.128 74.1806 265.708 74.5471 267.284 74.5471V68.8201ZM266.305 68.6569C266.234 68.6002 266.269 68.6092 266.319 68.7044C266.342 68.7502 266.362 68.803 266.375 68.8584C266.389 68.9133 266.392 68.9567 266.392 68.9822H260.665C260.665 70.7192 261.489 72.1384 262.728 73.1289L266.305 68.6569ZM266.392 68.9822V26.2868H260.665V68.9822H266.392ZM266.392 26.2868C266.392 26.2432 266.397 26.356 266.301 26.5222C266.203 26.6913 266.092 26.7543 266.105 26.7474L263.323 21.7411C262.545 22.1735 261.842 22.7965 261.348 23.6465C260.856 24.4936 260.665 25.408 260.665 26.2868H266.392ZM266.207 26.6876C266.55 26.4779 266.891 26.383 267.284 26.383V20.656C265.832 20.656 264.459 21.0443 263.221 21.8009L266.207 26.6876ZM267.284 26.383H280.066V20.656H267.284V26.383ZM280.066 26.383C282.021 26.383 283.851 26.6697 285.569 27.2302L287.345 21.7854C285.022 21.0281 282.591 20.656 280.066 20.656V26.383ZM285.623 27.2472C287.074 27.6886 288.215 28.482 289.122 29.6712L293.675 26.1968C292.035 24.0477 289.882 22.557 287.291 21.7684L285.623 27.2472ZM289.122 29.6712C289.87 30.6509 290.446 32.3336 290.446 35.1158H296.173C296.173 31.6606 295.475 28.5554 293.675 26.1968L289.122 29.6712ZM290.446 35.1158C290.446 37.4467 290.006 39.1713 289.297 40.4354L294.291 43.2373C295.603 40.8996 296.173 38.1437 296.173 35.1158H290.446ZM289.312 40.409C288.58 41.6813 287.667 42.4868 286.565 42.967L288.853 48.2169C291.178 47.2037 292.987 45.5054 294.276 43.2637L289.312 40.409ZM286.751 48.2906C287.802 48.6634 288.669 49.1703 289.388 49.7953L293.146 45.4737C291.844 44.3417 290.339 43.4869 288.667 42.8933L286.751 48.2906ZM289.443 49.8421C290.034 50.33 290.565 51.0366 290.986 52.0725L296.292 49.917C295.571 48.1417 294.521 46.6082 293.091 45.4269L289.443 49.8421ZM290.998 52.1022C291.369 52.9855 291.632 54.3473 291.632 56.3317H297.359C297.359 53.9236 297.051 51.7274 296.28 49.8874L290.998 52.1022ZM291.632 56.3317V57.7153H297.359V56.3317H291.632ZM291.632 57.7153C291.632 60.8476 291.084 63.0441 290.234 64.525L295.199 67.3777C296.721 64.7296 297.359 61.4355 297.359 57.7153H291.632ZM290.224 64.5424C289.365 66.0619 288.228 67.1013 286.783 67.761L289.162 72.9707C291.758 71.7855 293.784 69.8819 295.209 67.3603L290.224 64.5424ZM286.81 67.7492C285.246 68.444 283.432 68.8201 281.318 68.8201V74.5471C284.123 74.5471 286.746 74.0446 289.136 72.9825L286.81 67.7492ZM281.318 68.8201H267.284V74.5471H281.318V68.8201ZM272.094 67.0358H279.473V61.3089H272.094V67.0358ZM279.473 67.0358C282.052 67.0358 284.435 66.2904 286.242 64.4841L282.192 60.4345C281.714 60.9122 280.935 61.3089 279.473 61.3089V67.0358ZM286.242 64.4841C288.153 62.5729 288.793 59.8463 288.793 56.9906H283.067C283.067 59.1423 282.565 60.0615 282.192 60.4345L286.242 64.4841ZM288.793 56.9906V55.9364H283.067V56.9906H288.793ZM288.793 55.9364C288.793 53.0728 288.187 50.2228 286.114 48.3888L282.32 52.6783C282.531 52.8649 283.067 53.6168 283.067 55.9364H288.793ZM286.159 48.4295C284.345 46.7546 281.991 46.0888 279.473 46.0888V51.8157C280.996 51.8157 281.805 52.2041 282.275 52.6376L286.159 48.4295ZM279.473 46.0888H272.094V51.8157H279.473V46.0888ZM269.23 48.9523V64.1724H274.957V48.9523H269.23ZM272.094 45.0952H279.473V39.3682H272.094V45.0952ZM279.473 45.0952C281.83 45.0952 284.123 44.3839 285.671 42.4277L281.181 38.873C281.061 39.0252 280.717 39.3682 279.473 39.3682V45.0952ZM285.626 42.4835C287.021 40.8099 287.608 38.7539 287.608 36.5653H281.881C281.881 37.715 281.589 38.3824 281.226 38.8172L285.626 42.4835ZM287.608 36.5653C287.608 35.0395 287.326 33.5379 286.588 32.2097L281.582 34.991C281.723 35.2441 281.881 35.7192 281.881 36.5653H287.608ZM286.619 32.2667C285.932 30.9616 284.93 29.9081 283.631 29.1865L280.85 34.1927C281.132 34.3497 281.36 34.5699 281.551 34.934L286.619 32.2667ZM283.631 29.1865C282.333 28.4652 280.888 28.1673 279.407 28.1673V33.8942C280.122 33.8942 280.567 34.0355 280.85 34.1927L283.631 29.1865ZM279.407 28.1673H272.094V33.8942H279.407V28.1673ZM269.23 31.0307V42.2317H274.957V31.0307H269.23Z" fill="white" mask="url(#path-5-outside-2_2180_1021)"/>
</svg>
